<svg width="1200" height="1200" viewBox="0 0 1200 1200" fill="none" xmlns="http://www.w3.org/2000/svg">
<path d="M791.29 244.47H711.42V801.38H791.29V244.47Z" fill="white"/>
<path d="M1140 244.47V318.25H1057.27V801.38H977.39V318.25H894.65V244.47H1140Z" fill="white"/>
<path d="M338.49 244.41C184.93 244.41 60 369.32 60 522.89C60 676.46 184.93 801.38 338.49 801.38C380.341 801.433 421.658 791.99 459.33 773.76L399.1 713.53C379.507 719.792 359.059 722.967 338.49 722.94C228.18 722.94 138.43 633.19 138.43 522.89C138.43 412.59 228.18 322.89 338.49 322.89C448.8 322.89 538.49 412.63 538.49 522.94C538.539 560.212 528.105 596.746 508.38 628.37L511.64 631.63L564.86 684.87C598.824 637.694 617.067 581.02 617 522.89C617 369.32 492.05 244.41 338.49 244.41Z" fill="white"/>
<path d="M361.89 634.47L384.08 698.51L403.14 675.7" fill="#867800"/>
<path d="M584.31 745.96L532.93 750L528.89 801.35L361.89 634.47L417.29 579.04L490.75 652.5L546.3 708.07L584.31 745.96Z" fill="#B9A500"/>
<path d="M403.311 948.506C405.556 950.872 408.255 952.055 411.409 952.055C413.957 952.055 416.111 951.115 417.87 949.234C419.629 947.415 420.478 944.715 420.417 941.136V938.225H418.507V939.862C418.507 941.622 417.839 943.047 416.505 944.139C415.231 945.231 413.684 945.686 411.864 945.504C410.045 945.322 408.498 944.412 407.224 942.774L398.398 931.4C401.006 929.641 403.008 927.397 404.403 924.667C405.859 921.877 406.587 918.904 406.587 915.75V890C406.587 886.36 405.707 883.054 403.948 880.082C402.189 877.11 399.672 874.774 396.396 873.076C393.12 871.317 389.359 870.437 385.113 870.437C380.988 870.437 377.288 871.317 374.012 873.076C370.737 874.774 368.189 877.14 366.369 880.173C364.55 883.145 363.64 886.421 363.64 890V915.75C363.64 919.39 364.519 922.696 366.278 925.668C368.098 928.64 370.616 931.006 373.83 932.765C377.106 934.464 380.867 935.313 385.113 935.313C387.054 935.313 389.177 935.04 391.483 934.494L403.311 948.506ZM387.297 917.024C385.477 915.204 383.415 914.294 381.11 914.294C379.411 914.294 377.895 914.81 376.56 915.841C375.226 916.812 374.285 918.237 373.739 920.118V884.358C373.739 881.265 374.771 878.656 376.833 876.533C378.896 874.35 381.656 873.258 385.113 873.258C388.632 873.258 391.392 874.35 393.393 876.533C395.456 878.656 396.487 881.265 396.487 884.358V921.391C396.487 923.333 396.002 925.213 395.031 927.033L387.297 917.024ZM389.39 931.764C388.055 932.25 386.63 932.492 385.113 932.492C380.928 932.492 377.773 930.915 375.65 927.761C375.286 927.215 375.104 926.487 375.104 925.577C375.104 924.182 375.499 923.09 376.287 922.301C377.076 921.513 378.016 921.118 379.108 921.118C380.321 921.118 381.322 921.573 382.111 922.483L389.39 931.764ZM455.524 934.13H449.61C444.453 934.13 441.875 932.037 441.875 927.852C441.147 929.914 439.813 931.673 437.872 933.129C435.931 934.585 433.686 935.313 431.139 935.313C425.982 935.313 422.131 933.827 419.583 930.854C417.096 927.821 415.852 923.939 415.852 919.208V890.455H412.213V888.635H425.861V922.028C425.861 925.789 426.286 928.549 427.135 930.308C428.045 932.007 429.774 932.856 432.321 932.856C434.626 932.856 436.598 931.977 438.236 930.217C439.934 928.458 441.087 926.093 441.693 923.12V888.635H451.884V932.31H455.524V934.13ZM496.321 934.13C491.165 934.13 488.587 932.432 488.587 929.035C488.041 930.187 487.404 931.188 486.676 932.037C486.009 932.886 484.795 933.645 483.036 934.312C481.277 934.979 478.881 935.313 475.848 935.313C470.753 935.313 466.719 934.1 463.746 931.673C460.835 929.186 459.379 925.789 459.379 921.482C459.379 919.117 460.016 916.842 461.29 914.658C462.624 912.474 464.444 910.715 466.749 909.381C469.054 908.046 471.662 907.379 474.574 907.379H488.405V902.374C488.405 898.796 487.646 895.914 486.13 893.73C484.613 891.486 482.278 890.364 479.124 890.364C473.058 890.364 470.025 893.245 470.025 899.008C468.569 899.008 467.447 898.674 466.658 898.007C465.869 897.279 465.475 896.369 465.475 895.277C465.475 894.064 465.93 892.881 466.84 891.729C467.811 890.515 469.236 889.515 471.117 888.726C472.997 887.937 475.241 887.543 477.85 887.543H480.307C484.128 887.543 487.404 888.332 490.133 889.909C492.924 891.425 495.017 893.518 496.412 896.187C497.807 898.856 498.535 901.829 498.596 905.104V932.31C498.596 932.31 499.809 932.31 502.235 932.31V934.13H496.321ZM482.581 909.836C478.82 909.775 475.727 910.867 473.3 913.111C470.935 915.295 469.752 918.116 469.752 921.573C469.752 923.878 470.237 925.911 471.208 927.67C472.178 929.368 473.452 930.672 475.029 931.582C476.606 932.492 478.244 932.917 479.943 932.856C482.672 932.917 484.795 931.886 486.312 929.762C487.828 927.639 488.556 924.576 488.496 920.572L488.314 909.836H482.581ZM510.043 862.976V932.128H506.404V933.948H523.783V932.128H519.779V861.156H506.313V862.976H510.043ZM537.539 881.265C535.841 881.265 534.385 880.658 533.172 879.445C532.019 878.232 531.443 876.806 531.443 875.168C531.443 873.47 532.019 872.014 533.172 870.801C534.385 869.588 535.841 868.981 537.539 868.981C539.177 868.981 540.572 869.588 541.725 870.801C542.938 872.014 543.545 873.47 543.545 875.168C543.545 876.806 542.938 878.232 541.725 879.445C540.572 880.658 539.177 881.265 537.539 881.265ZM532.626 890.364V928.307C532.626 930.248 533.323 931.704 534.719 932.674C536.114 933.645 537.994 934.13 540.36 934.13H546.274V932.31H542.271V888.544H528.804V890.364H532.626ZM574.204 888.635H565.742V876.715H562.102C562.102 880.052 561.041 882.872 558.918 885.177C556.855 887.482 554.156 888.635 550.82 888.635V891.274H556.006V928.307C556.006 930.248 556.704 931.704 558.099 932.674C559.494 933.645 561.374 934.13 563.74 934.13H570.837V932.31H565.833V891.274H574.204V888.635ZM594.323 934.858C593.049 938.255 591.927 940.954 590.956 942.956C590.046 944.958 588.863 946.687 587.407 948.142C585.952 949.598 584.223 950.326 582.221 950.326C579.734 950.326 578.005 949.568 577.035 948.051C576.125 946.535 575.67 944.26 575.67 941.227C574.093 941.227 572.849 941.652 571.939 942.501C571.029 943.411 570.574 944.503 570.574 945.777C570.574 947.657 571.545 949.356 573.486 950.872C575.427 952.389 578.217 953.147 581.857 953.147C585.315 953.147 588.044 952.48 590.046 951.145C592.048 949.811 593.625 947.9 594.778 945.413C595.991 942.986 597.477 939.225 599.236 934.13L614.431 890.455H617.98V888.635H606.06V890.455H609.609L598.599 921.937L587.044 890.455H590.592V888.635H572.485V890.455H576.125L594.323 934.858ZM654.504 875.077C654.504 871.256 655.05 868.314 656.142 866.251C657.234 864.128 659.327 863.067 662.42 863.067C667.273 863.067 669.699 866.1 669.699 872.166C671.337 872.166 672.611 871.741 673.521 870.892C674.431 869.982 674.886 868.86 674.886 867.525C674.886 866.373 674.461 865.251 673.612 864.159C672.823 863.006 671.58 862.066 669.881 861.338C668.183 860.61 666.12 860.246 663.694 860.246H660.873C655.414 860.246 651.289 861.884 648.499 865.16C645.708 868.435 644.313 872.651 644.313 877.807V888.635H641.038V891.274H644.404V932.31H640.765V934.13H658.144V932.31H654.504V891.274H665.15V888.635H654.504V875.077ZM667.155 915.75C667.155 919.329 668.004 922.605 669.703 925.577C671.462 928.549 673.828 930.915 676.8 932.674C679.773 934.433 683.048 935.313 686.627 935.313C690.145 935.313 693.391 934.433 696.363 932.674C699.335 930.915 701.671 928.549 703.369 925.577C705.128 922.605 706.008 919.329 706.008 915.75V907.015C706.008 903.436 705.159 900.16 703.46 897.188C701.762 894.216 699.426 891.85 696.454 890.091C693.482 888.332 690.206 887.452 686.627 887.452C683.109 887.452 679.864 888.332 676.891 890.091C673.919 891.85 671.553 894.216 669.794 897.188C668.035 900.16 667.155 903.436 667.155 907.015V915.75ZM677.255 899.554C677.255 897.006 678.165 894.822 679.985 893.003C681.865 891.183 684.079 890.273 686.627 890.273C689.235 890.273 691.419 891.183 693.178 893.003C694.998 894.762 695.908 896.945 695.908 899.554V923.211C695.908 925.82 694.998 928.034 693.178 929.853C691.359 931.613 689.175 932.492 686.627 932.492C684.019 932.492 681.805 931.613 679.985 929.853C678.165 928.034 677.255 925.82 677.255 923.211V899.554ZM728.965 932.31V934.13H711.586V932.31H715.135V890.455H711.495V888.635H725.144V893.457C725.629 891.941 726.66 890.576 728.237 889.363C729.875 888.15 731.998 887.543 734.607 887.543C737.033 887.543 739.095 887.907 740.794 888.635C742.492 889.363 743.736 890.303 744.524 891.456C745.374 892.548 745.798 893.67 745.798 894.822C745.798 896.157 745.343 897.279 744.433 898.189C743.524 899.038 742.25 899.463 740.612 899.463C740.612 893.397 738.185 890.364 733.333 890.364C731.392 890.364 729.814 891.031 728.601 892.366C727.388 893.639 726.235 895.884 725.144 899.099V932.31H728.965ZM790.768 934.13H771.751V932.31H776.21V872.257H771.751V870.437H790.768V872.257H786.218V932.31H790.768V934.13ZM796.618 877.716C796.618 876.321 797.013 875.229 797.801 874.441C798.59 873.591 799.712 873.167 801.168 873.167H811.814V932.31H807.264V934.13H826.372V932.31H821.823V873.167H832.286C833.742 873.167 834.864 873.591 835.653 874.441C836.442 875.229 836.836 876.321 836.836 877.716H838.565V870.437H794.89V877.716H796.618Z" fill="#B9A500"/>
</svg>
